<?xml version="1.0" encoding="UTF-8"?><svg id="uuid-568ce14b-be57-4984-9090-c11a77b5adb8" xmlns="http://www.w3.org/2000/svg" xmlns:xlink="http://www.w3.org/1999/xlink" viewBox="0 0 100 100"><defs><filter id="uuid-af4d67a8-67db-4018-ba62-afb66d88182d" filterUnits="userSpaceOnUse"><feOffset dx="-6" dy="24"/><feGaussianBlur result="uuid-8c21b0d0-32cd-4d85-9cdd-daf264941658" stdDeviation="1"/><feFlood flood-color="#04070e" flood-opacity="1"/><feComposite in2="uuid-8c21b0d0-32cd-4d85-9cdd-daf264941658" operator="in"/><feComposite in="SourceGraphic"/></filter></defs><g id="uuid-b757f63d-a337-4059-8717-26727dbc33ed"><circle cx="50" cy="50" r="50" fill="#bcd9e8" filter="url(#uuid-af4d67a8-67db-4018-ba62-afb66d88182d)" stroke-width="0"/><path d="M67.49,83.72c-4.79,4.87-10.68,7.31-17.69,7.31-7.86,0-14.1-2.69-18.71-8.07-4.36-5.13-6.54-11.66-6.54-19.61,0-8.54,3.72-18.29,11.15-29.22,6.06-8.97,13.2-16.83,21.4-23.58-1.2,5.47-1.79,9.36-1.79,11.66,0,5.3,1.66,10.47,5,15.51,4.1,5.98,7.22,10.43,9.36,13.33,3.33,5.04,5,9.96,5,14.74,0,7.09-2.39,13.07-7.18,17.94ZM67.36,56.36c-1.28-2.86-2.78-4.76-4.49-5.7.26.51.38,1.24.38,2.18,0,1.79-.51,4.36-1.54,7.69l-1.66,5.13c0,2.99,1.49,4.49,4.48,4.49,3.16,0,4.74-2.09,4.74-6.28,0-2.13-.64-4.63-1.92-7.5Z" fill="#04070e" stroke-width="0"/></g></svg>